<?xml version="1.0" encoding="iso-8859-1"?>
<!-- Generator: Adobe Illustrator 19.1.0, SVG Export Plug-In . SVG Version: 6.00 Build 0)  -->
<svg version="1.1" id="Capa_1" xmlns="http://www.w3.org/2000/svg" xmlns:xlink="http://www.w3.org/1999/xlink" x="0px" y="0px"
	 viewBox="0 0 86.813 86.813" style="enable-background:new 0 0 86.813 86.813;" xml:space="preserve">
<g>
	<path d="M80.586,72.435c-0.005-1.245-0.173-44.506-0.173-49.126c0-4.466-5.903-10.81-7.551-12.493l-0.04-2.659
		c-0.01-0.661-0.559-1.185-1.214-1.177c-0.108,0.002-0.21,0.022-0.309,0.05c-0.059-0.02-0.12-0.038-0.186-0.038
		c-0.777,0-1.157,0.58-1.409,0.964c-0.223,0.34-0.303,0.423-0.409,0.423c-0.106,0-0.187-0.083-0.41-0.424
		c-0.252-0.384-0.632-0.963-1.409-0.963c-0.778,0-1.159,0.58-1.411,0.964c-0.223,0.34-0.304,0.423-0.41,0.423
		s-0.187-0.083-0.409-0.423c-0.252-0.384-0.633-0.964-1.411-0.964c-0.778,0-1.159,0.58-1.411,0.963
		C62.197,8.301,62.12,8.38,62.012,8.38c-0.109,0-0.186-0.079-0.412-0.424c-0.252-0.383-0.633-0.963-1.411-0.963
		c-0.076,0-0.147,0.017-0.214,0.043c-0.104-0.031-0.212-0.054-0.325-0.056c-0.644-0.013-1.204,0.517-1.214,1.177l-0.041,2.659
		c-1.648,1.683-7.551,8.026-7.551,12.493c0,2.362-0.044,16.629-0.087,27.71c-1.913-0.547-3.706-0.929-5.026-1.174
		c-3.846-0.713-7.86-1.091-11.61-1.091c-3.036,0-6.224,0.197-9.22,0.569l0,0C19.284,50.02,6.223,52.426,6.223,59.706
		c0,17.987,9.386,27.108,27.897,27.108c10.033,0,17.379-2.685,22.009-8.003c0.153,0.071,0.321,0.113,0.501,0.113h18.429
		c1.605,0,2.91-0.52,3.879-1.545C80.648,75.568,80.601,72.811,80.586,72.435z M78.058,35.48c0.047,13.598,0.125,33.729,0.136,36.631
		l-4.001,4c-0.116,0.116-0.174,0.269-0.175,0.421h-1.881l3.913-3.913c0.234-0.234,0.234-0.612,0-0.845
		c-0.233-0.234-0.612-0.234-0.845,0l-4.338,4.337c-0.116,0.116-0.174,0.269-0.175,0.421h-1.882l3.914-3.913
		c0.233-0.234,0.233-0.612,0-0.845c-0.234-0.234-0.612-0.234-0.845,0l-4.338,4.337c-0.116,0.116-0.174,0.269-0.175,0.421h-1.881
		l3.914-3.913c0.234-0.234,0.234-0.612,0-0.845s-0.612-0.234-0.845,0l-4.338,4.337c-0.116,0.116-0.174,0.269-0.175,0.421h-1.881
		l3.914-3.913c0.234-0.234,0.234-0.612,0-0.845c-0.233-0.234-0.612-0.234-0.845,0l-4.338,4.337
		c-0.116,0.116-0.174,0.269-0.175,0.421h-1.881l3.914-3.913c0.233-0.234,0.233-0.612,0-0.845c-0.234-0.234-0.612-0.234-0.845,0
		l-3.078,3.078c2.122-4.037,3.193-9.086,3.193-15.147c0-1.688-0.855-3.121-2.193-4.333V35.075c1.823,0.081,3.62,0.042,4.934-0.255
		c1.918-0.433,2.934-0.991,3.751-1.44c0.588-0.322,1.043-0.567,1.679-0.691v36.387c0,0.33,0.268,0.598,0.598,0.598
		s0.598-0.267,0.598-0.598V32.61c2.537,0.121,6.629,2.84,6.671,2.868C78.055,35.479,78.057,35.479,78.058,35.48z M53.234,23.309
		c0-3.307,5.189-9.165,7.188-11.143c0.222-0.22,0.35-0.518,0.355-0.831l0.037-2.414c0.25,0.326,0.611,0.655,1.197,0.655
		c0.778,0,1.159-0.58,1.411-0.963c0.227-0.345,0.304-0.424,0.412-0.424c0.107,0,0.187,0.083,0.411,0.424
		c0.252,0.384,0.632,0.963,1.409,0.963s1.158-0.58,1.409-0.963c0.224-0.34,0.304-0.424,0.411-0.424c0.106,0,0.187,0.083,0.409,0.423
		c0.252,0.384,0.632,0.964,1.41,0.964c0.551,0,0.9-0.292,1.148-0.598l0.036,2.357c0.005,0.313,0.133,0.612,0.355,0.832
		c1.999,1.978,7.189,7.835,7.189,11.143c0,1.26,0.012,5.389,0.031,10.753c-1.341-0.825-4.421-2.562-6.669-2.648v-1.516
		c0-0.33-0.268-0.598-0.598-0.598s-0.598,0.267-0.598,0.598v1.577c-0.948,0.142-1.566,0.48-2.255,0.858
		c-0.79,0.434-1.686,0.925-3.439,1.321c-1.214,0.274-2.922,0.304-4.671,0.222v-3.978c0-0.33-0.268-0.598-0.598-0.598
		s-0.598,0.267-0.598,0.598v3.907c-2.22-0.161-4.336-0.457-5.419-0.623C53.224,28.275,53.234,24.436,53.234,23.309z M53.205,34.392
		c1.163,0.177,3.238,0.461,5.422,0.614v19.422c-1.567-1.086-3.513-1.96-5.484-2.653C53.166,46.231,53.188,39.783,53.205,34.392z
		 M53.576,60.164c-2.044,1.502-8.745,3.434-19.453,3.434C21.103,63.598,14,60.742,14,59.274c0-0.506,1.332-1.63,4.891-2.618
		c1.575,0.423,3.637,0.863,4.677,0.601c1.098-0.274,1.256-1.109,1.371-1.718c0.122-0.643,0.237-1.252,1.273-1.769
		c0.526-0.263,1.287-0.472,2.141-0.639c0.145,0.603,0.25,1.657-0.588,2.19c-0.279,0.177-0.361,0.547-0.183,0.826
		c0.114,0.179,0.307,0.277,0.505,0.277c0.11,0,0.221-0.03,0.321-0.093c1.304-0.83,1.361-2.333,1.128-3.398
		c2.172-0.312,4.539-0.409,5.246-0.432l3.417,2.657c0.17,0.132,0.397,0.162,0.597,0.08l4.385-1.827l2.507,2.865
		c0.191,0.218,0.509,0.267,0.757,0.119l3.48-2.089L53.576,60.164z M21.587,56.027c0.648-0.125,1.355-0.244,2.103-0.355
		c-0.075,0.289-0.161,0.363-0.411,0.425C22.924,56.187,22.309,56.144,21.587,56.027z M34.12,84.422
		c-10.168,0-17.373-2.924-21.413-8.691C9.953,71.8,8.614,66.558,8.614,59.706c0-3.672,6.353-6.741,16.58-8.01h0
		c2.9-0.36,5.986-0.55,8.925-0.55c3.554,0,7.522,0.373,11.174,1.051c1.501,0.278,2.909,0.603,4.222,0.96l-3.256,1.954l-2.461-2.812
		c-0.168-0.193-0.442-0.257-0.68-0.158l-4.46,1.858l-3.312-2.575c-0.109-0.085-0.251-0.125-0.38-0.126
		c-0.277,0.006-6.807,0.162-9.29,1.403c-0.451,0.226-0.781,0.479-1.037,0.742c-0.239-0.168-0.538-0.251-0.85-0.204
		c-4.549,0.64-12.182,2.276-12.182,6.036c0,4.614,11.67,6.715,22.513,6.715c10.843,0,22.514-2.101,22.514-6.715
		c0-1.19-0.756-2.256-2.247-3.168c-0.563-0.344-1.299-0.167-1.644,0.396c-0.007,0.012-0.011,0.025-0.018,0.037l-1.862-2.991
		c5.399,1.663,8.76,3.943,8.76,6.158C59.625,65.819,59.625,84.422,34.12,84.422z M75.495,76.5l2.558-2.558
		c-0.13,0.606-0.374,1.286-0.854,1.793C76.777,76.183,76.211,76.427,75.495,76.5z"/>
	<path d="M59.528,6.491h11.926c0.66,0,1.196-0.535,1.196-1.196V2.686C72.65,1.205,71.445,0,69.964,0h-8.945
		c-1.481,0-2.687,1.205-2.687,2.686v2.609C58.333,5.956,58.868,6.491,59.528,6.491z M60.724,2.686c0-0.16,0.135-0.295,0.295-0.295
		h8.945c0.16,0,0.295,0.135,0.295,0.295V4.1h-9.535V2.686z"/>
	<path d="M59.225,27.834c0.33,0,0.598-0.267,0.598-0.598c0-2.858,2.325-5.183,5.182-5.183c2.858,0,5.183,2.325,5.183,5.183
		c0,0.33,0.268,0.598,0.598,0.598s0.598-0.267,0.598-0.598c0-3.517-2.861-6.378-6.378-6.378c-3.517,0-6.378,2.861-6.378,6.378
		C58.628,27.566,58.895,27.834,59.225,27.834z"/>
	<path d="M39.562,59.909c0.102,0.068,0.217,0.1,0.331,0.1c0.193,0,0.383-0.093,0.498-0.266c0.183-0.275,0.109-0.646-0.166-0.829
		l-2.69-1.793c-0.249-0.167-0.584-0.122-0.781,0.104l-1.046,1.196c-0.218,0.248-0.192,0.626,0.056,0.844
		c0.25,0.218,0.627,0.193,0.844-0.057l0.701-0.801L39.562,59.909z"/>
	<path d="M33.433,55.129c0.111-0.311-0.051-0.653-0.362-0.764c-0.31-0.112-0.653,0.051-0.764,0.362
		c-0.256,0.716-0.871,1.788-1.315,1.851c-0.327,0.047-0.554,0.35-0.507,0.677c0.043,0.298,0.298,0.513,0.591,0.513
		c0.028,0,0.057-0.002,0.085-0.006C32.496,57.571,33.288,55.536,33.433,55.129z"/>
	<path d="M29.024,58.397l-2.69-0.897c-0.119-0.04-0.248-0.041-0.367-0.003l-2.391,0.747c-0.315,0.098-0.491,0.434-0.392,0.748
		c0.099,0.316,0.436,0.491,0.749,0.392l2.207-0.689l2.507,0.835c0.063,0.021,0.127,0.031,0.189,0.031
		c0.25,0,0.484-0.158,0.567-0.409C29.506,58.839,29.337,58.501,29.024,58.397z"/>
	<path d="M42.897,58.834c-0.07,0.316,0.126,0.622,0.439,0.701c0.048,0.012,0.095,0.018,0.142,0.018c0.264,0,0.507-0.179,0.581-0.443
		c0.011-0.04,0.301-0.991,2.22-1.351c0.324-0.061,0.538-0.373,0.478-0.698c-0.061-0.324-0.373-0.536-0.698-0.477
		C43.313,57.098,42.913,58.763,42.897,58.834z"/>
	<path d="M47.815,60.906c0.153,0,0.306-0.058,0.422-0.175c0.177-0.177,1.723-1.776,1.353-3.257c-0.08-0.32-0.406-0.514-0.725-0.435
		c-0.32,0.08-0.515,0.405-0.435,0.724c0.176,0.703-0.714,1.796-1.039,2.123c-0.233,0.234-0.232,0.612,0.001,0.845
		C47.509,60.848,47.662,60.906,47.815,60.906z"/>
	<path d="M43.032,61.205h-2.69c-0.064,0-0.128,0.01-0.189,0.031l-2.69,0.897c-0.313,0.104-0.483,0.443-0.378,0.756
		c0.083,0.25,0.317,0.409,0.567,0.409c0.062,0,0.126-0.01,0.189-0.031l2.598-0.866h2.593c0.33,0,0.598-0.267,0.598-0.598
		C43.63,61.473,43.362,61.205,43.032,61.205z"/>
	<path d="M32.632,60.825l1.015-1.354c0.198-0.264,0.145-0.639-0.119-0.837c-0.265-0.198-0.639-0.145-0.837,0.12l-1.345,1.793
		c-0.187,0.249-0.151,0.599,0.081,0.805l1.345,1.196c0.114,0.102,0.256,0.151,0.397,0.151c0.165,0,0.329-0.068,0.447-0.201
		c0.219-0.246,0.197-0.625-0.05-0.844L32.632,60.825z"/>
	<path d="M19.187,59.266c-0.325-0.037-0.623,0.2-0.66,0.528c-0.036,0.328,0.2,0.623,0.528,0.66c0.954,0.106,1.443,1.392,1.448,1.405
		c0.089,0.242,0.318,0.392,0.561,0.392c0.068,0,0.137-0.012,0.204-0.036c0.31-0.113,0.47-0.455,0.358-0.766
		C21.595,61.368,20.881,59.455,19.187,59.266z"/>
	<path d="M27.389,60.276c-0.118-0.178-0.324-0.272-0.537-0.265L24.61,60.16c-0.329,0.022-0.579,0.307-0.557,0.636
		c0.022,0.329,0.312,0.571,0.636,0.557l1.896-0.127l1.004,1.506c0.115,0.173,0.305,0.266,0.498,0.266c0.114,0,0.229-0.033,0.331-0.1
		c0.275-0.183,0.349-0.554,0.166-0.829L27.389,60.276z"/>
</g>
<g>
</g>
<g>
</g>
<g>
</g>
<g>
</g>
<g>
</g>
<g>
</g>
<g>
</g>
<g>
</g>
<g>
</g>
<g>
</g>
<g>
</g>
<g>
</g>
<g>
</g>
<g>
</g>
<g>
</g>
</svg>
