<svg xmlns="http://www.w3.org/2000/svg" xmlns:xlink="http://www.w3.org/1999/xlink" version="1.1" x="0px" y="0px" viewBox="0 0 102.24 127.8" enable-background="new 0 0 102.24 102.24" xml:space="preserve"><path fill-rule="evenodd" clip-rule="evenodd" d="M91.74,10.372c-0.581,3.837-5.82,5.825-8.249,8.91  c-0.262,23.713-3.128,45.479-3.63,67.977c-0.816,0.393-1.291,1.129-1.65,1.979c-12.598,1.357-30.02,3.921-45.537,4.949  c-2.99,0.2-5.827,1.051-8.579,0.66c-4.583-0.648-8.307-4.097-12.21-5.938c1.191-20.057,2.395-43.665,2.97-63.358  c-2.474-2.191-2.598-6.803-3.63-9.569c17.454-3.025,41.106-2.465,59.727-6.27c1.699,0.501,2.021,2.377,2.971,3.63  c1.953-1.456,2.74-4.077,4.289-5.939C82.463,8.511,88.044,9.058,91.74,10.372z M76.231,13.341c2.794,0.154,4.692-0.586,7.59-0.33  c-0.277,0.822-0.433,1.767-0.33,2.97c2.652-0.648,4.028-2.571,5.278-4.62C84.122,11.067,77.941,7.789,76.231,13.341z M68.972,11.361  c-14.129,2.559-28.313,3.1-43.558,4.62c0.199,1.23,1.241,1.619,1.32,2.969c3.333,0.254,5.933-0.226,7.59-1.649  c2.593,1.589,4.946-0.267,7.589-0.66c9.099-1.356,20.582-0.205,28.708-3.3C69.866,12.887,69.846,11.696,68.972,11.361z   M34.653,19.611c-0.764,1.986-2.022,3.477-2.64,5.61c16.367-1.371,32.787-4.252,49.167-7.589c0.129-1.19,0.427-2.213,0.66-3.3  C64.587,15.778,50.828,17.924,34.653,19.611z M13.865,16.971c-0.229,2.428,0.56,3.839,0.989,5.61c3.056,0.971,7.6,1.989,10.889,1.65  c-0.66-2.529-1.661-4.718-2.639-6.929C20.015,16.806,17.077,16.567,13.865,16.971z M29.043,27.531  c-1.142,22.273-4.525,41.094-2.64,64.348c16.567,0.397,33.869-3.297,50.488-4.951c0.987-22.125,3.368-46.33,2.97-66.986  c-0.019-0.201-0.05-0.39-0.331-0.33C62.862,22.819,46.583,25.406,29.043,27.531z M28.054,20.931c0.157,1.603,0.589,2.932,1.32,3.96  c0.346-1.49,2.965-3.596,1.649-4.62C30.335,20.792,29.288,20.956,28.054,20.931z M17.164,25.551  c-0.794,20.233-2.15,40.759-3.629,62.367c3.289,1.349,7.08,3.894,10.229,4.289c-1.254-22.82,1.746-44.947,2.311-65.335  C24.2,25.675,21.202,26.178,17.164,25.551z"/><path fill-rule="evenodd" clip-rule="evenodd" fill="#000000" d="M88.77,11.361c-1.25,2.049-2.626,3.972-5.278,4.62  c-0.103-1.203,0.053-2.147,0.33-2.97c-2.897-0.257-4.796,0.484-7.59,0.33"/><path fill-rule="evenodd" clip-rule="evenodd" d="M76.562,28.52c-1.152,6.811-0.289,13.865-1.65,19.8  c-13.12,3.57-26.535,3.368-41.577,4.949c1.253-5.331,0.982-16.207,1.979-20.458C48.433,30.301,62.693,29.194,76.562,28.52z   M37.623,34.46c-1.108,5.412-0.773,12.47-0.99,17.159c11.719-1.176,24.562-0.846,34.979-3.959c0.472-4.455,0.374-12.104,1.65-16.83  C61.872,31.68,48.741,31.975,37.623,34.46z"/></svg>