<svg xmlns="http://www.w3.org/2000/svg" xmlns:xlink="http://www.w3.org/1999/xlink" version="1.1" x="0px" y="0px" viewBox="0 0 95.778 271.47875" style="enable-background:new 0 0 95.778 217.183;" xml:space="preserve"><g><path d="M72.816,54.861c0.592,1.216,1.189,2.61,1.779,4.236c2.819,7.813,5.19,20.63,5.18,40.637   c0.003,5.512-0.178,11.572-0.564,18.225c-0.255,4.411,3.11,8.196,7.523,8.453c0.158,0.009,0.316,0.014,0.473,0.014   c4.206,0,7.732-3.283,7.978-7.536c0.402-6.931,0.591-13.297,0.594-19.155c-0.043-30.181-4.862-46.886-11.437-56.928   c-3.285-4.987-7.126-8.185-10.677-9.955c-1.725-0.87-3.343-1.397-4.759-1.711C65.396,40.51,56.351,47.2,45.77,47.2   c-10.493,0-19.475-6.582-23.046-15.831c-0.016,0.004-0.031,0.008-0.047,0.013c-4.032,1.221-8.853,3.643-13.537,7.767   c-2.304,2.069-4.523,4.585-6.244,7.699c-1.654,2.981-2.801,6.589-2.88,10.518C0.013,57.521,0,57.672,0,57.827   c-0.016,6.886,3.29,13.891,9.501,20.27c6.251,6.45,15.52,12.779,29.131,19.407c1.126,0.548,2.318,0.807,3.491,0.807   c2.967,0.001,5.817-1.657,7.201-4.505c1.932-3.973,0.276-8.761-3.698-10.693c-12.544-6.08-20.339-11.674-24.613-16.128   c-4.314-4.525-4.993-7.404-5.01-9.158c0-0.016,0.004-0.031,0.004-0.047c0.016-1.237,0.365-2.368,1.193-3.705   c0.391-0.64,0.92-1.293,1.524-1.935v7.896c0.66,1.583,1.947,3.399,3.88,5.429c3.305,3.444,10.154,8.966,23.982,15.669   c2.452,1.191,4.292,3.266,5.183,5.842c0.889,2.573,0.725,5.341-0.467,7.79c-1.693,3.488-5.295,5.744-9.174,5.744h-0.007   c-1.556,0-3.053-0.348-4.454-1.031c-7.403-3.604-13.683-7.201-18.943-10.854V204.82c0,6.83,5.537,12.363,12.365,12.363   c6.826,0,12.363-5.533,12.363-12.363v-90.271h4.635v90.271c0,6.83,5.537,12.363,12.365,12.363c6.826,0,12.363-5.533,12.363-12.363   V54.861z"/><circle cx="45.771" cy="22.5" r="22.5"/></g></svg>