<svg xmlns="http://www.w3.org/2000/svg" xmlns:xlink="http://www.w3.org/1999/xlink" xml:space="preserve" version="1.1" style="shape-rendering:geometricPrecision;text-rendering:geometricPrecision;image-rendering:optimizeQuality;" viewBox="0 0 50000 62500" x="0px" y="0px" fill-rule="evenodd" clip-rule="evenodd"><defs><style type="text/css">
   
    .fil0 {fill:black;fill-rule:nonzero}
   
  </style></defs><g><path class="fil0" d="M25554.2 42665.65c220.84,-17.31 413.91,147.67 431.22,368.5 17.32,220.84 -147.66,413.91 -368.5,431.23 -348.56,27.49 -720.3,48.99 -1115.89,64.21 -395.29,15.22 -775.31,22.98 -1139.28,22.98 -3738.18,0 -6850.37,-679.98 -9436.29,-1801.49 598.05,1088.33 2155.84,1885.82 4131.47,2384.09 1582.43,399.09 3424.82,598.65 5270.73,598.65 1845.92,0 3688.31,-199.56 5270.73,-598.65 2009.94,-506.93 3587.42,-1323.54 4161.76,-2441.05 -1205.5,554.54 -2525.13,1002.68 -3968.95,1315.56 -216.5,46.76 -429.94,-90.85 -476.7,-307.35 -46.77,-216.5 90.84,-429.94 307.34,-476.7 4756.55,-1030.74 8107.31,-3590.77 10431.05,-6571.47 3730.9,-4785.7 4827.72,-10640.21 4842.31,-13033.79 4.53,-742.97 -345.28,-1523.6 -923.51,-2239.87 -631.36,-782.08 -1529.21,-1478.72 -2539.95,-1967.88 -199.19,-96.12 -282.73,-335.54 -186.6,-534.72 96.12,-199.19 335.53,-282.73 534.72,-186.61 1115.66,539.93 2111.06,1314.31 2815.93,2187.43 688.49,852.85 1104.86,1806.98 1099.14,2744.78 -15.19,2489.01 -1150.44,8570.15 -5011.68,13523.03 -1521.02,1951.04 -3463.12,3729.38 -5923.28,5050.15 -294.11,1808.6 -2296.86,3042.79 -4967.12,3716.25 -1648.75,415.82 -3558.75,623.74 -5465.19,623.74 -1906.43,0 -3816.44,-207.92 -5465.18,-623.74 -2632.52,-663.94 -4616.28,-1872.89 -4953.65,-3639.89 -9233.45,-4665.43 -11165.06,-15159.51 -11165.06,-18651.11 0,-2410.96 2457.77,-4557.01 6431.44,-6077.69 3856.83,-1475.95 9176.55,-2388.87 15044.92,-2388.87 1929.4,0 3806.13,99.57 5596.21,286.1 1843.43,192.09 3588.98,476.95 5199.89,840.72 215.63,48.49 351.13,262.62 302.63,478.26 -48.49,215.63 -262.62,351.13 -478.26,302.63 -1579.15,-356.58 -3293.05,-636.13 -5105.81,-825.02 -1750.9,-182.44 -3599.78,-279.83 -5514.66,-279.83 -5770.98,0 -10988.76,892.54 -14759.53,2335.56 -3653.95,1398.32 -5913.98,3284.86 -5913.98,5328.14 0,4367.15 3143.89,20127.78 20815.13,20127.78 399.6,0 769.65,-6.7 1111.06,-19.84 350.39,-13.49 711.05,-35 1081.39,-64.22zm14005.4 -10781.27c121.78,-64.95 273.17,-18.88 338.12,102.9 64.95,121.79 18.88,273.18 -102.91,338.13 -509.25,272.98 -1073.16,539.48 -1683.25,792.57 -589.14,244.4 -1226.78,478.72 -1905.87,696.93 -131.51,42.21 -272.38,-30.18 -314.59,-161.7 -42.21,-131.52 30.19,-272.38 161.71,-314.59 660.59,-212.27 1285.3,-442.04 1866.67,-683.22 601.39,-249.48 1150.66,-508.65 1640.12,-771.02zm549.03 -2065.73c118.53,-70.9 272.12,-32.28 343.02,86.25 70.9,118.53 32.28,272.12 -86.25,343.02 -909.89,542.84 -2054.45,1075.28 -3370.51,1544.96 -1216,433.98 -2582.14,816.21 -4049.17,1105.72 -135.85,26.52 -267.5,-62.12 -294.01,-197.97 -26.52,-135.85 62.12,-267.5 197.97,-294.02 1439.92,-284.16 2781.65,-659.63 3976.65,-1086.11 1289.18,-460.08 2403.35,-977.46 3282.3,-1501.85zm1020.88 -2375.86c108.79,-85.52 266.33,-66.65 351.84,42.14 85.52,108.78 66.65,266.32 -42.14,351.84 -1202.27,948.19 -3216.84,1937.99 -5706.02,2688.54 -2136.74,644.28 -4629.75,1114.37 -7265.32,1232.14 -138.01,5.95 -254.74,-101.12 -260.69,-239.13 -5.95,-138.01 101.12,-254.74 239.13,-260.69 2588.68,-115.67 5040.38,-578.32 7143.79,-1212.55 2427.14,-731.84 4381.85,-1689.37 5539.41,-2602.29zm-11242.18 -6538.15c0,138.56 -112.33,250.89 -250.89,250.89 -138.57,0 -250.9,-112.33 -250.9,-250.89 0,-272.72 171.86,-508.41 449.72,-668.96 237.03,-136.96 558.54,-221.68 908.3,-221.68 349.79,0 671.29,84.72 908.31,221.68 277.86,160.55 449.72,396.24 449.72,668.96 0,138.56 -112.33,250.89 -250.89,250.89 -138.56,0 -250.89,-112.33 -250.89,-250.89 0,-80.59 -75.99,-164.81 -198.83,-235.78 -163.66,-94.57 -395.75,-153.07 -657.42,-153.07 -261.66,0 -493.74,58.5 -657.41,153.07 -122.83,70.97 -198.82,155.19 -198.82,235.78zm7486.74 1887.9c0,138.56 -112.33,250.89 -250.89,250.89 -138.57,0 -250.9,-112.33 -250.9,-250.89 0,-272.72 171.86,-508.41 449.72,-668.96 237.02,-136.95 558.54,-221.68 908.3,-221.68 349.79,0 671.29,84.73 908.31,221.68 277.86,160.55 449.72,396.24 449.72,668.96 0,138.56 -112.33,250.89 -250.89,250.89 -138.56,0 -250.89,-112.33 -250.89,-250.89 0,-80.59 -75.99,-164.8 -198.83,-235.78 -163.66,-94.56 -395.75,-153.07 -657.42,-153.07 -261.66,0 -493.74,58.51 -657.41,153.07 -122.83,70.98 -198.82,155.19 -198.82,235.78zm-30963.71 0c0,138.56 -112.33,250.89 -250.89,250.89 -138.56,0 -250.89,-112.33 -250.89,-250.89 0,-272.72 171.86,-508.41 449.72,-668.96 237.02,-136.95 558.53,-221.68 908.3,-221.68 349.77,0 671.28,84.73 908.31,221.68 277.85,160.55 449.72,396.24 449.72,668.96 0,138.56 -112.33,250.89 -250.9,250.89 -138.56,0 -250.89,-112.33 -250.89,-250.89 0,-80.59 -75.99,-164.8 -198.83,-235.78 -163.66,-94.56 -395.74,-153.07 -657.41,-153.07 -261.66,0 -493.75,58.51 -657.41,153.07 -122.84,70.98 -198.83,155.19 -198.83,235.78zm28281.29 2112.86c0,138.57 -112.33,250.9 -250.89,250.9 -138.57,0 -250.89,-112.33 -250.89,-250.9 0,-272.72 171.86,-508.4 449.71,-668.95 237.03,-136.96 558.54,-221.68 908.3,-221.68 349.79,0 671.29,84.72 908.31,221.68 277.86,160.55 449.72,396.23 449.72,668.95 0,138.57 -112.33,250.9 -250.89,250.9 -138.56,0 -250.89,-112.33 -250.89,-250.9 0,-80.58 -75.99,-164.8 -198.83,-235.77 -163.66,-94.57 -395.75,-153.08 -657.42,-153.08 -261.66,0 -493.74,58.51 -657.4,153.08 -122.84,70.97 -198.83,155.19 -198.83,235.77zm-6784.22 1831.16c0,138.57 -112.33,250.9 -250.89,250.9 -138.57,0 -250.9,-112.33 -250.9,-250.9 0,-272.72 171.86,-508.4 449.72,-668.95 237.03,-136.96 558.54,-221.68 908.3,-221.68 349.79,0 671.29,84.72 908.31,221.68 277.86,160.55 449.72,396.23 449.72,668.95 0,138.57 -112.33,250.9 -250.89,250.9 -138.56,0 -250.89,-112.33 -250.89,-250.9 0,-80.58 -75.99,-164.8 -198.83,-235.77 -163.66,-94.57 -395.75,-153.08 -657.42,-153.08 -261.66,0 -493.74,58.51 -657.41,153.08 -122.83,70.97 -198.82,155.19 -198.82,235.77zm-4436.41 0c0,138.57 -112.33,250.9 -250.89,250.9 -138.56,0 -250.89,-112.33 -250.89,-250.9 0,-272.72 171.86,-508.4 449.72,-668.95 237.02,-136.96 558.53,-221.68 908.3,-221.68 349.77,0 671.28,84.72 908.31,221.68 277.86,160.55 449.72,396.23 449.72,668.95 0,138.57 -112.33,250.9 -250.9,250.9 -138.56,0 -250.89,-112.33 -250.89,-250.9 0,-80.58 -75.99,-164.8 -198.82,-235.77 -163.67,-94.57 -395.75,-153.08 -657.42,-153.08 -261.66,0 -493.75,58.51 -657.41,153.08 -122.84,70.97 -198.83,155.19 -198.83,235.77zm-4436.41 0c0,138.57 -112.33,250.9 -250.89,250.9 -138.57,0 -250.89,-112.33 -250.89,-250.9 0,-272.72 171.86,-508.4 449.71,-668.95 237.03,-136.96 558.54,-221.68 908.3,-221.68 349.78,0 671.29,84.72 908.31,221.68 277.86,160.55 449.72,396.23 449.72,668.95 0,138.57 -112.33,250.9 -250.89,250.9 -138.56,0 -250.89,-112.33 -250.89,-250.9 0,-80.58 -75.99,-164.8 -198.83,-235.77 -163.66,-94.57 -395.75,-153.08 -657.42,-153.08 -261.66,0 -493.74,58.51 -657.4,153.08 -122.84,70.97 -198.83,155.19 -198.83,235.77zm-4436.4 0c0,138.57 -112.33,250.9 -250.9,250.9 -138.56,0 -250.89,-112.33 -250.89,-250.9 0,-272.72 171.86,-508.4 449.72,-668.95 237.02,-136.96 558.54,-221.68 908.3,-221.68 349.77,0 671.29,84.72 908.31,221.68 277.86,160.55 449.72,396.23 449.72,668.95 0,138.57 -112.33,250.9 -250.89,250.9 -138.57,0 -250.9,-112.33 -250.9,-250.9 0,-80.58 -75.99,-164.8 -198.82,-235.77 -163.66,-94.57 -395.75,-153.08 -657.42,-153.08 -261.66,0 -493.75,58.51 -657.41,153.08 -122.83,70.97 -198.82,155.19 -198.82,235.77zm-6028.51 -1955.87c0,138.56 -112.33,250.89 -250.89,250.89 -138.56,0 -250.89,-112.33 -250.89,-250.89 0,-272.72 171.86,-508.41 449.72,-668.96 237.02,-136.96 558.53,-221.68 908.29,-221.68 349.78,0 671.29,84.72 908.31,221.68 277.86,160.55 449.72,396.24 449.72,668.96 0,138.56 -112.33,250.89 -250.89,250.89 -138.56,0 -250.89,-112.33 -250.89,-250.89 0,-80.59 -75.99,-164.81 -198.83,-235.78 -163.66,-94.56 -395.74,-153.07 -657.42,-153.07 -261.66,0 -493.74,58.51 -657.4,153.07 -122.84,70.97 -198.83,155.19 -198.83,235.78zm21719.39 67.97c0,138.56 -112.33,250.89 -250.9,250.89 -138.56,0 -250.89,-112.33 -250.89,-250.89 0,-272.72 171.86,-508.41 449.72,-668.96 237.02,-136.95 558.54,-221.67 908.3,-221.67 349.78,0 671.29,84.72 908.31,221.67 277.86,160.55 449.72,396.24 449.72,668.96 0,138.56 -112.33,250.89 -250.89,250.89 -138.57,0 -250.9,-112.33 -250.9,-250.89 0,-80.58 -75.99,-164.8 -198.82,-235.78 -163.66,-94.56 -395.75,-153.07 -657.42,-153.07 -261.66,0 -493.75,58.51 -657.41,153.07 -122.83,70.98 -198.82,155.2 -198.82,235.78zm-4436.41 0c0,138.56 -112.33,250.89 -250.89,250.89 -138.56,0 -250.89,-112.33 -250.89,-250.89 0,-272.72 171.86,-508.41 449.72,-668.96 237.02,-136.95 558.53,-221.67 908.3,-221.67 349.78,0 671.28,84.72 908.31,221.67 277.85,160.55 449.71,396.24 449.71,668.96 0,138.56 -112.32,250.89 -250.89,250.89 -138.56,0 -250.89,-112.33 -250.89,-250.89 0,-80.58 -75.99,-164.8 -198.83,-235.78 -163.66,-94.56 -395.74,-153.07 -657.41,-153.07 -261.66,0 -493.75,58.51 -657.41,153.07 -122.84,70.98 -198.83,155.2 -198.83,235.78zm-4436.41 0c0,138.56 -112.33,250.89 -250.89,250.89 -138.57,0 -250.9,-112.33 -250.9,-250.89 0,-272.72 171.86,-508.41 449.72,-668.96 237.03,-136.95 558.54,-221.67 908.3,-221.67 349.78,0 671.29,84.72 908.31,221.67 277.86,160.55 449.72,396.24 449.72,668.96 0,138.56 -112.33,250.89 -250.89,250.89 -138.56,0 -250.89,-112.33 -250.89,-250.89 0,-80.58 -75.99,-164.8 -198.83,-235.78 -163.66,-94.56 -395.75,-153.07 -657.42,-153.07 -261.66,0 -493.74,58.51 -657.41,153.07 -122.83,70.98 -198.82,155.2 -198.82,235.78zm-4436.41 0c0,138.56 -112.33,250.89 -250.89,250.89 -138.56,0 -250.89,-112.33 -250.89,-250.89 0,-272.72 171.86,-508.41 449.72,-668.96 237.02,-136.95 558.53,-221.67 908.3,-221.67 349.77,0 671.28,84.72 908.31,221.67 277.86,160.55 449.72,396.24 449.72,668.96 0,138.56 -112.33,250.89 -250.9,250.89 -138.56,0 -250.89,-112.33 -250.89,-250.89 0,-80.58 -75.99,-164.8 -198.82,-235.78 -163.67,-94.56 -395.75,-153.07 -657.42,-153.07 -261.66,0 -493.75,58.51 -657.41,153.07 -122.84,70.98 -198.83,155.2 -198.83,235.78zm-4436.41 0c0,138.56 -112.33,250.89 -250.89,250.89 -138.57,0 -250.89,-112.33 -250.89,-250.89 0,-272.72 171.86,-508.41 449.71,-668.96 237.03,-136.95 558.54,-221.67 908.3,-221.67 349.78,0 671.29,84.72 908.31,221.67 277.86,160.55 449.72,396.24 449.72,668.96 0,138.56 -112.33,250.89 -250.89,250.89 -138.56,0 -250.89,-112.33 -250.89,-250.89 0,-80.58 -75.99,-164.8 -198.83,-235.78 -163.66,-94.56 -395.75,-153.07 -657.42,-153.07 -261.66,0 -493.74,58.51 -657.4,153.07 -122.84,70.98 -198.83,155.2 -198.83,235.78zm19800.4 -2056.12c0,138.56 -112.33,250.89 -250.89,250.89 -138.56,0 -250.89,-112.33 -250.89,-250.89 0,-272.72 171.86,-508.41 449.72,-668.96 237.02,-136.95 558.53,-221.68 908.3,-221.68 349.78,0 671.28,84.73 908.31,221.68 277.85,160.55 449.71,396.24 449.71,668.96 0,138.56 -112.32,250.89 -250.89,250.89 -138.56,0 -250.89,-112.33 -250.89,-250.89 0,-80.59 -75.99,-164.8 -198.83,-235.78 -163.66,-94.56 -395.74,-153.07 -657.41,-153.07 -261.66,0 -493.75,58.51 -657.41,153.07 -122.84,70.98 -198.83,155.19 -198.83,235.78zm-4436.42 0c0,138.56 -112.33,250.89 -250.89,250.89 -138.57,0 -250.9,-112.33 -250.9,-250.89 0,-272.72 171.86,-508.41 449.72,-668.96 237.03,-136.95 558.54,-221.68 908.3,-221.68 349.79,0 671.29,84.73 908.31,221.68 277.86,160.55 449.72,396.24 449.72,668.96 0,138.56 -112.33,250.89 -250.89,250.89 -138.56,0 -250.89,-112.33 -250.89,-250.89 0,-80.59 -75.99,-164.8 -198.83,-235.78 -163.66,-94.56 -395.75,-153.07 -657.42,-153.07 -261.66,0 -493.74,58.51 -657.41,153.07 -122.83,70.98 -198.82,155.19 -198.82,235.78zm-4436.41 0c0,138.56 -112.33,250.89 -250.89,250.89 -138.56,0 -250.89,-112.33 -250.89,-250.89 0,-272.72 171.86,-508.41 449.72,-668.96 237.02,-136.95 558.53,-221.68 908.3,-221.68 349.77,0 671.28,84.73 908.31,221.68 277.86,160.55 449.72,396.24 449.72,668.96 0,138.56 -112.33,250.89 -250.9,250.89 -138.56,0 -250.89,-112.33 -250.89,-250.89 0,-80.59 -75.99,-164.8 -198.82,-235.78 -163.67,-94.56 -395.75,-153.07 -657.42,-153.07 -261.66,0 -493.75,58.51 -657.41,153.07 -122.84,70.98 -198.83,155.19 -198.83,235.78zm-4436.41 0c0,138.56 -112.33,250.89 -250.89,250.89 -138.57,0 -250.89,-112.33 -250.89,-250.89 0,-272.72 171.86,-508.41 449.71,-668.96 237.03,-136.95 558.54,-221.68 908.3,-221.68 349.78,0 671.29,84.73 908.31,221.68 277.86,160.55 449.72,396.24 449.72,668.96 0,138.56 -112.33,250.89 -250.89,250.89 -138.56,0 -250.89,-112.33 -250.89,-250.89 0,-80.59 -75.99,-164.8 -198.83,-235.78 -163.66,-94.56 -395.75,-153.07 -657.42,-153.07 -261.66,0 -493.74,58.51 -657.4,153.07 -122.84,70.98 -198.83,155.19 -198.83,235.78zm-4436.4 0c0,138.56 -112.33,250.89 -250.9,250.89 -138.56,0 -250.89,-112.33 -250.89,-250.89 0,-272.72 171.86,-508.41 449.72,-668.96 237.02,-136.95 558.54,-221.68 908.3,-221.68 349.77,0 671.29,84.73 908.31,221.68 277.86,160.55 449.72,396.24 449.72,668.96 0,138.56 -112.33,250.89 -250.89,250.89 -138.57,0 -250.9,-112.33 -250.9,-250.89 0,-80.59 -75.99,-164.8 -198.82,-235.78 -163.66,-94.56 -395.75,-153.07 -657.42,-153.07 -261.66,0 -493.75,58.51 -657.41,153.07 -122.83,70.98 -198.82,155.19 -198.82,235.78zm-4436.42 0c0,138.56 -112.33,250.89 -250.89,250.89 -138.56,0 -250.89,-112.33 -250.89,-250.89 0,-272.72 171.86,-508.41 449.72,-668.96 237.02,-136.95 558.53,-221.68 908.3,-221.68 349.77,0 671.28,84.73 908.31,221.68 277.85,160.55 449.71,396.24 449.71,668.96 0,138.56 -112.33,250.89 -250.89,250.89 -138.56,0 -250.89,-112.33 -250.89,-250.89 0,-80.59 -75.99,-164.8 -198.83,-235.78 -163.66,-94.56 -395.74,-153.07 -657.41,-153.07 -261.66,0 -493.75,58.51 -657.41,153.07 -122.84,70.98 -198.83,155.19 -198.83,235.78zm15690.89 -1887.9c0,138.56 -112.33,250.89 -250.89,250.89 -138.56,0 -250.89,-112.33 -250.89,-250.89 0,-272.72 171.86,-508.41 449.72,-668.96 237.02,-136.96 558.53,-221.68 908.3,-221.68 349.78,0 671.28,84.72 908.31,221.68 277.85,160.55 449.71,396.24 449.71,668.96 0,138.56 -112.32,250.89 -250.89,250.89 -138.56,0 -250.89,-112.33 -250.89,-250.89 0,-80.59 -75.99,-164.81 -198.83,-235.78 -163.66,-94.57 -395.74,-153.07 -657.41,-153.07 -261.66,0 -493.75,58.5 -657.41,153.07 -122.84,70.97 -198.83,155.19 -198.83,235.78zm-4436.41 0c0,138.56 -112.33,250.89 -250.89,250.89 -138.57,0 -250.9,-112.33 -250.9,-250.89 0,-272.72 171.86,-508.41 449.72,-668.96 237.03,-136.96 558.54,-221.68 908.3,-221.68 349.78,0 671.29,84.72 908.31,221.68 277.86,160.55 449.72,396.24 449.72,668.96 0,138.56 -112.33,250.89 -250.89,250.89 -138.56,0 -250.89,-112.33 -250.89,-250.89 0,-80.59 -75.99,-164.81 -198.83,-235.78 -163.66,-94.57 -395.75,-153.07 -657.42,-153.07 -261.66,0 -493.74,58.5 -657.41,153.07 -122.83,70.97 -198.82,155.19 -198.82,235.78zm-4436.41 0c0,138.56 -112.33,250.89 -250.89,250.89 -138.56,0 -250.89,-112.33 -250.89,-250.89 0,-272.72 171.86,-508.41 449.72,-668.96 237.02,-136.96 558.53,-221.68 908.3,-221.68 349.77,0 671.28,84.72 908.31,221.68 277.86,160.55 449.72,396.24 449.72,668.96 0,138.56 -112.33,250.89 -250.9,250.89 -138.56,0 -250.89,-112.33 -250.89,-250.89 0,-80.59 -75.99,-164.81 -198.82,-235.78 -163.67,-94.57 -395.75,-153.07 -657.42,-153.07 -261.66,0 -493.75,58.5 -657.41,153.07 -122.84,70.97 -198.83,155.19 -198.83,235.78zm-4436.41 0c0,138.56 -112.33,250.89 -250.89,250.89 -138.57,0 -250.89,-112.33 -250.89,-250.89 0,-272.72 171.86,-508.41 449.71,-668.96 237.03,-136.96 558.54,-221.68 908.3,-221.68 349.78,0 671.29,84.72 908.31,221.68 277.86,160.55 449.72,396.24 449.72,668.96 0,138.56 -112.33,250.89 -250.89,250.89 -138.56,0 -250.89,-112.33 -250.89,-250.89 0,-80.59 -75.99,-164.81 -198.83,-235.78 -163.66,-94.57 -395.75,-153.07 -657.42,-153.07 -261.66,0 -493.74,58.5 -657.4,153.07 -122.84,70.97 -198.83,155.19 -198.83,235.78zm15363.98 -1886.71c0,138.56 -112.33,250.89 -250.89,250.89 -138.57,0 -250.9,-112.33 -250.9,-250.89 0,-272.72 171.86,-508.41 449.72,-668.96 237.03,-136.96 558.54,-221.68 908.3,-221.68 349.79,0 671.29,84.72 908.31,221.68 277.86,160.55 449.72,396.24 449.72,668.96 0,138.56 -112.33,250.89 -250.89,250.89 -138.56,0 -250.89,-112.33 -250.89,-250.89 0,-80.59 -75.99,-164.81 -198.83,-235.78 -163.66,-94.56 -395.75,-153.07 -657.42,-153.07 -261.66,0 -493.74,58.51 -657.41,153.07 -122.83,70.97 -198.82,155.19 -198.82,235.78zm-4436.41 0c0,138.56 -112.33,250.89 -250.89,250.89 -138.56,0 -250.89,-112.33 -250.89,-250.89 0,-272.72 171.86,-508.41 449.72,-668.96 237.02,-136.96 558.53,-221.68 908.3,-221.68 349.77,0 671.28,84.72 908.31,221.68 277.86,160.55 449.72,396.24 449.72,668.96 0,138.56 -112.33,250.89 -250.9,250.89 -138.56,0 -250.89,-112.33 -250.89,-250.89 0,-80.59 -75.99,-164.81 -198.82,-235.78 -163.67,-94.56 -395.75,-153.07 -657.42,-153.07 -261.66,0 -493.75,58.51 -657.41,153.07 -122.84,70.97 -198.83,155.19 -198.83,235.78zm-4436.41 0c0,138.56 -112.33,250.89 -250.89,250.89 -138.57,0 -250.89,-112.33 -250.89,-250.89 0,-272.72 171.86,-508.41 449.71,-668.96 237.03,-136.96 558.54,-221.68 908.3,-221.68 349.78,0 671.29,84.72 908.31,221.68 277.86,160.55 449.72,396.24 449.72,668.96 0,138.56 -112.33,250.89 -250.89,250.89 -138.56,0 -250.89,-112.33 -250.89,-250.89 0,-80.59 -75.99,-164.81 -198.83,-235.78 -163.66,-94.56 -395.75,-153.07 -657.42,-153.07 -261.66,0 -493.74,58.51 -657.4,153.07 -122.84,70.97 -198.83,155.19 -198.83,235.78zm-4436.4 0c0,138.56 -112.33,250.89 -250.9,250.89 -138.56,0 -250.89,-112.33 -250.89,-250.89 0,-272.72 171.86,-508.41 449.72,-668.96 237.02,-136.96 558.54,-221.68 908.3,-221.68 349.77,0 671.29,84.72 908.31,221.68 277.86,160.55 449.72,396.24 449.72,668.96 0,138.56 -112.33,250.89 -250.89,250.89 -138.57,0 -250.9,-112.33 -250.9,-250.89 0,-80.59 -75.99,-164.81 -198.82,-235.78 -163.66,-94.56 -395.75,-153.07 -657.42,-153.07 -261.66,0 -493.75,58.51 -657.41,153.07 -122.83,70.97 -198.82,155.19 -198.82,235.78zm-5793.01 1838.04c0,138.56 -112.33,250.89 -250.89,250.89 -138.57,0 -250.9,-112.33 -250.9,-250.89 0,-272.72 171.86,-508.41 449.72,-668.96 237.03,-136.96 558.54,-221.68 908.3,-221.68 349.78,0 671.29,84.72 908.31,221.68 277.86,160.55 449.72,396.24 449.72,668.96 0,138.56 -112.33,250.89 -250.89,250.89 -138.56,0 -250.89,-112.33 -250.89,-250.89 0,-80.59 -75.99,-164.81 -198.83,-235.78 -163.66,-94.57 -395.75,-153.08 -657.42,-153.08 -261.66,0 -493.74,58.51 -657.41,153.08 -122.83,70.97 -198.82,155.19 -198.82,235.78zm23492.35 -1494.23c-136.94,-17.31 -233.9,-142.37 -216.59,-279.31 17.31,-136.94 142.37,-233.9 279.31,-216.59 333.64,42.94 665.44,113.19 988.97,206 11.57,-23.91 25.71,-47.04 42.46,-68.97l9724.97 -12733.98c1083.88,-1419.25 2263.19,-1901.76 3213.59,-1790.08 451.38,53.03 851.3,238.86 1169.81,523.59 314.18,280.86 545.73,656.75 665.21,1094.33 264.63,969.24 -22.19,2247.5 -1204.87,3430.17l-10972.29 10972.3c203.26,186.3 379.96,380.39 524.06,577.95 81.18,111.5 56.61,267.71 -54.88,348.89 -111.5,81.18 -267.71,56.61 -348.89,-54.88 -345.77,-474.05 -916.23,-932.25 -1603.33,-1296.45 -664.65,-352.3 -1432.62,-613.22 -2207.53,-712.97zm1838.62 -13.96c207.75,86.51 409.15,181.65 602.16,283.95 215.67,114.33 421.4,237.9 614.38,368.66 5.36,-6.04 10.91,-11.97 16.69,-17.75l11023.37 -11023.37c952.8,-952.8 1197.38,-1933.14 1001,-2652.42 -78.17,-286.35 -226.74,-529.68 -426.85,-708.57 -195.81,-175.04 -444.45,-289.6 -727.6,-322.87 -697.95,-82.01 -1600.13,319.6 -2486.01,1479.59l-9617.14 12592.78zm4597.29 299.03c-197.45,-100.46 -276.08,-341.97 -175.62,-539.42 100.45,-197.45 341.96,-276.08 539.41,-175.63 1010.25,514.82 1768.01,1063.12 2279.81,1656.03 542.62,628.61 810.52,1302.7 810.52,2034.14 0,1913.56 -2182.94,3603.58 -5712.28,4789.02 -3400.15,1142.04 -8087.19,1848.43 -13255.17,1848.43 -10475.44,0 -18967.45,-2971.69 -18967.45,-6637.45 0,-1913.55 2182.94,-3603.57 5712.28,-4789.01 3400.15,-1142.04 8087.2,-1848.44 13255.17,-1848.44 1641.9,0 3234.98,71.17 4753.37,204.78 1562.54,137.51 3051.16,342.53 4436.92,605.39 217.37,40.69 360.58,249.91 319.89,467.29 -40.7,217.37 -249.92,360.58 -467.3,319.88 -1349.35,-255.95 -2811.36,-456.68 -4358.51,-592.83 -1495.17,-131.58 -3065.09,-201.65 -4684.37,-201.65 -5085.75,0 -9681.74,689.61 -13001.15,1804.54 -3190.24,1071.55 -5163.44,2499.57 -5163.44,4030.05 0,3222.35 8132.56,5834.6 18164.59,5834.6 5085.75,0 9681.75,-689.61 13001.15,-1804.54 3190.24,-1071.55 5163.45,-2499.56 5163.45,-4030.06 0,-534.51 -202.6,-1035.03 -612.94,-1510.4 -441.14,-511.04 -1118.8,-996.13 -2038.33,-1464.72z"/></g></svg>