<svg xmlns="http://www.w3.org/2000/svg" xmlns:xlink="http://www.w3.org/1999/xlink" version="1.1" x="0px" y="0px" viewBox="0 0 100 125" enable-background="new 0 0 100 100" xml:space="preserve"><path d="M50,84.251c-2.984,0-5.424-2.245-5.539-5.047c-0.019-0.082-0.027-0.167-0.023-0.253l1.956-41.62  c-2.303-1.943-12.949-11.901-5.546-24.224c2.647-4.287,5.617-6.456,8.833-6.456c5.399,0,9.261,6.185,9.422,6.448  c7.407,12.329-3.201,22.287-5.498,24.231l1.945,41.421c0.021,0.079,0.03,0.161,0.03,0.246c0,0.108-0.017,0.213-0.049,0.311  C55.363,82.062,52.946,84.251,50,84.251z M46.446,78.85c0.007,0.048,0.011,0.098,0.011,0.148c0,1.794,1.589,3.253,3.543,3.253  c1.953,0,3.543-1.459,3.543-3.253c0-0.052,0.004-0.102,0.012-0.151l-1.97-41.925c-0.016-0.33,0.134-0.646,0.396-0.845  c0.033-0.025,3.283-2.507,5.546-6.476c2.958-5.19,2.914-10.392-0.132-15.462c-0.028-0.046-3.437-5.487-7.713-5.487  c-2.477,0-4.874,1.85-7.125,5.497c-3.05,5.077-3.077,10.297-0.075,15.504c2.281,3.956,5.502,6.398,5.535,6.423  c0.265,0.199,0.415,0.516,0.399,0.847L46.446,78.85z"/><path d="M55.708,20c-0.553,0-1-0.448-1-1c0-2.257-2.552-4.93-4.708-4.93c-0.552,0-1-0.448-1-1s0.448-1,1-1  c3.26,0,6.708,3.562,6.708,6.93C56.708,19.552,56.261,20,55.708,20z"/><path d="M50,80.647c-1.22,0-2.25-1.03-2.25-2.25s1.03-2.25,2.25-2.25s2.25,1.03,2.25,2.25S51.22,80.647,50,80.647z M50,77.147  c-0.678,0-1.25,0.572-1.25,1.25s0.572,1.25,1.25,1.25c0.666,0,1.25-0.584,1.25-1.25S50.666,77.147,50,77.147z"/></svg>