<svg xmlns="http://www.w3.org/2000/svg" xmlns:xlink="http://www.w3.org/1999/xlink" version="1.1" x="0px" y="0px" viewBox="0 0 100 125" enable-background="new 0 0 100 100" xml:space="preserve"><polygon points="72.126,56.956 48.986,35.01 48.986,27.675 13.363,65.604 41.305,91 "/><polygon points="50.586,34.321 73.199,55.775 73.779,56.321 74.357,56.87 77.118,59.492 77.118,53.822 77.118,52.863 77.118,52.633   77.118,52.108 76.792,51.804 50.586,27.446 "/><polygon points="77.118,41.048 77.118,33.443 50.586,8.781 50.586,11.595 50.586,15.726 50.586,16.981 77.118,42.152 "/><polygon points="48.397,25.563 42.035,23.106 13,54.241 13,63.594 13,63.651 48.676,25.674 "/><polygon points="46.773,15.681 39.699,12.309 39.699,20.489 41.604,21.223 42.408,21.535 43.21,21.846 48.986,24.078 48.986,23.779   48.986,17.671 48.986,16.735 48.289,16.399 47.53,16.038 "/><polygon points="78.718,45.869 78.718,51.402 78.718,51.41 78.718,51.78 78.901,51.854 87.722,55.353 87.722,48.01 78.718,43.608   "/></svg>