<svg xmlns="http://www.w3.org/2000/svg" xmlns:xlink="http://www.w3.org/1999/xlink" version="1.1" x="0px" y="0px" viewBox="0 0 100 125" style="enable-background:new 0 0 100 100;" xml:space="preserve"><path d="M51.2,77.2c-2.2,0.3-4.5,0.1-6.7-0.3c-1.9-0.4-3.9-0.1-5.8-0.5c-2.6-0.4-4.3-1.8-5.2-4.1c-0.3-0.7-0.7-0.9-1.3-1.2  c-2.6-1.3-5.6-1.7-8.1-3.3c-3.6-2.4-7.3-4.5-10.3-7.6c-3.4-3.4-6.1-7.3-8.5-11.3c-1.2-2.1-2.4-4.3-2.8-6.8c-0.1-0.8-0.1-1.4,0.4-2.1  c2.1-2.8,4.3-5.4,7.4-7.3c6.5-3.9,13.5-6.1,20.9-7.2c4.2-0.6,8.4-0.8,12.6-0.9c3.8-0.1,7.7-0.3,11.6,0.2c7.3,0.9,14.5,2.1,21.6,4.2  c4.4,1.3,8.7,2.8,12.8,5c2.8,1.5,5.6,3.3,7.1,6.2c1.2,2.4,1.3,5,0.6,7.8c-0.8,2.9-2.5,5.1-4.1,7.6c-2.6,4.2-6.3,7.2-10.1,10.1  c-2.9,2.1-6.2,3.8-9.7,4.9c-0.7,0.2-1.4,0.5-2.1,0.7c-1.5,0.4-2.6,0.9-2.7,2.7c-0.1,1.2-1.1,2-2.3,2.3c-1.4,0.4-2.8,0.6-4.3,0.6  C58.5,76.7,54.9,77.4,51.2,77.2z M8.2,47.2c1.3-1.4,1.8-3,2.9-4.3c1.4-1.7,3.1-2.9,5.4-2.8c2.1,0.1,3.1,1.8,2.4,3.7  c-0.3,0.8-2.4,2-3.2,1.9c-0.3,0-0.6-0.2-0.7-0.5c-0.1-0.3-0.1-0.6,0.1-0.8c0.2-0.2,0.5-0.3,0.7-0.5c0.7-0.5,1.8-0.9,1.1-1.9  c-0.6-0.9-1.6-0.3-2.3,0.2c-0.2,0.1-0.4,0.2-0.5,0.4c-1.8,1.7-2.9,3.8-3.9,6c-0.3,0.6,0.1,1.1,0.4,1.6c1,1.3,2.4,2,3.8,2.9  c1,0.7,1.8,0.5,2.7-0.3c2.3-2,4.8-3.8,7.6-5.1c4.7-2.2,9.6-3.2,14.7-4c1.1-0.2,2.1-0.6,3.2-0.5c5.1,0.2,10.2-0.2,15.3,0.4  c4.4,0.6,8.6,1.5,12.7,3c4.7,1.8,8.9,4.3,12,8.4c0.4,0.4,0.7,1.1,1.4,0.9c2.2-0.5,4-1.7,5.9-3.2c-1.7-0.6-3.2-0.7-4.5-1.4  c-1.5-0.8-2.2-2.4-1.5-3.6c0.5-0.9,2.6-1.4,3.8-0.9c0.7,0.3,1.1,1.3,0.7,1.8c-0.5,0.6-1.1,0.8-1.6,0c-0.4-0.5-0.9-0.7-1.3-0.2  c-0.6,0.7,0.1,1,0.6,1.3c1.9,1.4,4.1,1.2,6.2,1.1c0.8-0.1,1.4-0.9,1.2-1.8c-0.8-3.8-2.6-7.1-5.6-9.6c-3.1-2.5-6.8-3.8-10.4-5.4  c-3.4-1.5-7-2.5-10.7-3c-6-0.7-12-1.2-18-1.4c-6-0.2-11.9,0-17.8,1c-3.1,0.5-6.2,1.5-9.3,2.2c-4.2,1-7.5,3.5-10.7,6  c-1.3,1-2.4,2.3-3.3,3.8C6.2,44.9,6.2,44.9,8.2,47.2z M17.2,54.5c4.4,2.5,9,3.7,13.5,5.1c0.9,0.3,1.3-0.2,1.9-0.8  c1.7-1.6,3.7-2.7,5.9-3.5c5.1-1.8,10.4-2.2,15.7-1.6c4.1,0.5,8.1,1.5,10.3,5.5c0.6,1.1,1.4,1.1,2.4,1c1.9-0.3,3.9-0.7,5.8-0.9  c2.9-0.4,5.8-1,8.4-2.4c0.1-0.5-0.2-0.7-0.4-1c-1.8-2.9-4.7-4.5-7.6-6.1c-6.8-3.7-14.2-5-21.9-5.1c-5.7-0.1-11.4,0.4-17.1,1.6  C27.9,47.4,22.6,50.6,17.2,54.5z M91.5,54c-1.3,0.6-2.6,1.1-3.9,1.8c-4.1,2.4-8.5,3.9-13.1,4.6c-4.8,0.7-9.6,1.6-14.4,2.2  c-4,0.5-8,0.7-12,0.7c-2.1,0-4.2-0.5-6.3-0.6c-3.6-0.2-7.3-0.8-10.8-1.5c-4.8-1-9.5-2.5-14-4.9c-1.8-1-3.6-2.1-6-2.7  c2.5,3.8,5.4,6.7,8.7,9.2c7.2,5.4,15.6,7.3,24.2,8.3c3.8,0.4,7.7,0.5,11.5,0.3c2.9-0.2,5.8-0.4,8.7-0.9c4.2-0.6,8.3-1.9,12.2-3.7  c2-0.9,3.9-2,5.6-3.2c0.8-0.6,1.7-1.1,2.5-1.7C87.6,59.9,89.9,57.3,91.5,54z M95.2,45.7c0.3-2.6-0.1-3.7-1.4-5.5  c-2.4-3.5-6.1-5.4-9.8-7c-7.4-3-15.1-5.2-23.1-6.1c-1.5-0.2-3.1,0.1-4.6-0.2c-6.4-1.3-12.8-1.1-19.2-0.6c-6.7,0.5-13.4,1.7-19.7,4.5  c-3.8,1.7-7.3,3.8-10.3,6.8c-1.1,1.1-2,2.4-1.8,4.1c0.3-0.1,0.4,0,0.5-0.1c0.2-0.1,0.4-0.3,0.5-0.4c1-2,2.7-3.2,4.5-4.4  c2.7-1.8,5.4-3.9,8.5-4.9c4.3-1.4,8.8-2.7,13.2-3.6c2-0.4,4-0.8,6.1-0.6c6.3,0.5,12.6-0.2,18.9,0.3c6.6,0.5,13,1.5,19.2,3.4  c2.2,0.6,4.2,1.6,6.3,2.5c4.9,1.9,8.6,5.1,11,9.8C94.4,44.3,94.8,44.9,95.2,45.7z M63.1,60.4c-1.2-2.6-3.3-3.8-5.8-4.5  c-3.8-1-7.6-1.2-11.4-0.9c-2.5,0.2-5,1-7.3,2c-1,0.4-1.6,1.2-2.3,2c-0.6,0.8-0.5,1.1,0.6,1.2c2.5,0,5.1,0,7.6,0.3  c2.1,0.3,4.2,0.5,6.3,0.5c2.7,0,5.4,0,8.1,0C60.2,61,61.6,61.1,63.1,60.4z M35.3,72.1c1,1.3,1.7,2,3,2.3c4.9,0.8,9.8,1.4,14.8,1.2  c3.1-0.1,6.2-0.6,9.4-0.5c0.9,0,1.9-0.2,2.8-0.4c0.8-0.1,1.3-0.6,1.8-1.2c0.2-0.3,0.4-0.6,0.3-1c-0.2-0.4-0.6-0.3-0.9-0.2  c-2,0.6-4,0.7-6,0.8c-6.3,0.4-12.5,0.4-18.7-0.6C39.6,72.3,37.6,72.2,35.3,72.1z"/><path d="M38.5,38c-0.4,0-0.7-0.1-1.1-0.1c-0.3-0.1-0.5-0.3-0.6-0.6c0-0.3,0.2-0.5,0.4-0.7c0.7-0.5,1.4-0.3,2.1-0.4  c0.5-0.1,1.1-0.1,1.1-0.8c0-0.6-0.6-0.8-1.1-0.9c-0.5-0.1-1,0-1.5,0.2c-1.7,0.7-3.2,1.5-4.7,2.6c-2.9,2.1-5.7,4.5-9.6,4.8  c-0.4,0-0.9,0.1-1.3,0.1c-1.2-0.1-1.9-1-2.4-2c-0.4-0.9,0.3-1.4,0.8-2.1c0.6-0.8,1.4-1.3,2.3-1.7c1.3-0.6,2.5,0.3,2.6,1.7  c0,0.4,0,0.8-0.4,0.9c-0.3,0.1-0.7,0.2-1-0.2c-0.3-0.5-0.5-0.9-1.1-0.6c-0.6,0.3-1.4,0.6-1.2,1.3c0.2,0.8,1.1,1,1.8,0.8  c2.3-0.4,4.4-1.4,6.3-2.8c2.5-1.8,5-3.6,8-4.5c1.9-0.6,3.2-0.3,4.2,1c0.9,1.2,0.7,2.1-0.5,2.9C40.5,37.6,39.6,38.1,38.5,38z"/><path d="M50.9,35.1c-1,0.5-1.8,1.4-3,0.5c-0.4-0.3-1.1,0.1-1.4,0.7c-0.2,0.6,0.2,1,0.8,1.1c0.7,0.2,1.3,0.4,2.1,0.2  c2.3-0.5,4.2-1.5,6.2-2.6c1.5-0.8,3-1.4,4.7-1.6c0.7-0.1,1.3,0,1.9,0.2c0.5,0.2,0.9,0.6,1,1.1c0.5,1.5-1.2,3.9-2.8,4  c-1.2,0.1-2.2-1.1-1.8-2.1c0.4-0.9,1-0.9,1.8-0.5c0.3,0.2,0.7,0,0.7-0.5c0-0.4-0.4-0.4-0.6-0.4c-1.3-0.1-2.6,0.2-3.8,0.8  c-1.7,0.8-3.3,1.7-5.1,2.5c-1.3,0.6-2.8,1-4.2,0.7c-1.2-0.2-2.3-0.7-2.6-2c-0.3-1.2,0.2-2.2,1.4-2.9c1.1-0.7,2.3-1.3,3.6-0.3  C50.3,34.3,50.7,34.5,50.9,35.1z"/><path d="M71.1,42.3c-1.4-0.1-2.5,0-3.5-0.6c-1.2-0.8-1.6-2-1-3c0.8-1.1,3-1.6,3.9-0.9c0.6,0.4,0.4,0.9-0.4,1.2  c-0.5,0.2-1.4,0.1-1.3,0.8c0.1,0.8,1.1,0.5,1.7,0.6c1.8,0.2,3.4-0.5,5.1-0.7c1.7-0.2,3.3-0.3,5,0.1c1.4,0.3,1.8,1.3,2.1,2.5  c0.2,1.2-0.4,1.9-1.4,2.5c-1.1,0.7-2.2,0.5-3.3-0.1c-0.6-0.4-0.9-1-0.4-1.7c0.4-0.6,0.9-0.3,1.3,0c0.2,0.1,0.4,0.3,0.6,0.3  c0.5,0.1,1.1,0.1,1.3-0.5c0.3-0.7-0.1-1.2-0.6-1.4c-1-0.4-2-0.4-3-0.2c-1.3,0.2-2.6,0.5-3.8,0.7C72.4,42.2,71.6,42.3,71.1,42.3z"/></svg>